# xmcd
#
# Track frame offsets: 
#        150
#        11697
#        24065
#        35397
#        48096
#        58610
#        67435
#        78375
#        89122
#        96189
#        105623
#        118193
#        130598
#        141597
#        152396
#        168055
#        180072
#        191186
#
# Disc length: 2724 seconds
#
# Revision: 3
# Processed by: cddbd v1.5.2PL0 Copyright (c) Steve Scherf et al.
# Submitted via: ExactAudioCopy v0.99pb3
#
DISCID=e80aa212
DTITLE=Don Williams - Frankie Laine - Faron Young - Waylon Jennings  - Co
DTITLE=untry 4 You
DYEAR=1996
DGENRE=Country
TTITLE0=Waylon Jennings - Sally Was A Good Old Girl
TTITLE1=Frankie Laine - High Noon
TTITLE2=Don Williams - Storybook Children
TTITLE3=Faron Young - It's Four In The Morning
TTITLE4=Frankie Laine - I Believe
TTITLE5=Waylon Jennings - Abilene
TTITLE6=Don Williams - Spend Some Time With Me
TTITLE7=Faron Young - If You Ain't Lovin'
TTITLE8=Waylon Jennings - It's So Easy
TTITLE9=Frankie Laine - Rawhide
TTITLE10=Don Williams - There's Never Been A Time
TTITLE11=Faron Young - Sweet Dreams
TTITLE12=Waylon Jennings - Dream Baby
TTITLE13=Frankie Laine - A Woman In Love
TTITLE14=Don Williams - Tears
TTITLE15=Waylon Jennings - Crying
TTITLE16=Faron Young - Wind Me Up
TTITLE17=Don Williams - Where Do We Go From Here
EXTD=
EXTT0=
EXTT1=
EXTT2=
EXTT3=
EXTT4=
EXTT5=
EXTT6=
EXTT7=
EXTT8=
EXTT9=
EXTT10=
EXTT11=
EXTT12=
EXTT13=
EXTT14=
EXTT15=
EXTT16=
EXTT17=
PLAYORDER=
